<svg xmlns="http://www.w3.org/2000/svg" viewBox="0 0 1000 1220" width="1000" height="1220" font-family="Arial, Helvetica, sans-serif">
  <rect width="1000" height="1220" fill="#F7F7F7"/>
  <defs>
    <marker id="arrow-default" markerWidth="10" markerHeight="10" refX="8" refY="4" orient="auto" markerUnits="strokeWidth">
      <polygon points="0 0, 8 4, 0 8" fill="#555555"/>
    </marker>
    <marker id="arrow-c0" markerWidth="10" markerHeight="10" refX="8" refY="4" orient="auto" markerUnits="strokeWidth">
      <polygon points="0 0, 8 4, 0 8" fill="#202020"/>
    </marker>
    <marker id="arrow-c1" markerWidth="10" markerHeight="10" refX="8" refY="4" orient="auto" markerUnits="strokeWidth">
      <polygon points="0 0, 8 4, 0 8" fill="#2E9D95"/>
    </marker>
    <marker id="arrow-c2" markerWidth="10" markerHeight="10" refX="8" refY="4" orient="auto" markerUnits="strokeWidth">
      <polygon points="0 0, 8 4, 0 8" fill="#49A35C"/>
    </marker>
    <marker id="arrow-c3" markerWidth="10" markerHeight="10" refX="8" refY="4" orient="auto" markerUnits="strokeWidth">
      <polygon points="0 0, 8 4, 0 8" fill="#E3E2B8"/>
    </marker>
    <marker id="arrow-c4" markerWidth="10" markerHeight="10" refX="8" refY="4" orient="auto" markerUnits="strokeWidth">
      <polygon points="0 0, 8 4, 0 8" fill="#D8C5F2"/>
    </marker>
  </defs>
  <rect x="191.0" y="145.0" width="500.5" height="573.0" fill="#FAFAFA" stroke="#202020" stroke-width="1" rx="8"/>
  <text x="199.0" y="161.0" font-size="13" fill="#999999" font-weight="bold">Native 3-class type model ×5</text>
  <rect x="166.0" y="794.0" width="668.0" height="344.0" fill="#FAFAFA" stroke="#202020" stroke-width="1" rx="8"/>
  <text x="174.0" y="810.0" font-size="13" fill="#999999" font-weight="bold">Constructed exposure-proxy model</text>
  <path d="M 300.0,141.0 L 300.0,169.0" stroke="#202020" stroke-width="3" fill="none" marker-end="url(#arrow-c0)"/>
  <path d="M 300.0,241.0 L 300.0,249.0" stroke="#202020" stroke-width="3" fill="none" marker-end="url(#arrow-c0)"/>
  <path d="M 300.0,321.0 L 300.0,329.0" stroke="#202020" stroke-width="3" fill="none" marker-end="url(#arrow-c0)"/>
  <path d="M 384.7,401.0 L 431.8,421.0" stroke="#202020" stroke-width="3" fill="none" marker-end="url(#arrow-c0)"/>
  <path d="M 674.0,144.0 L 604.0,249.0" stroke="#202020" stroke-width="3" fill="none" marker-end="url(#arrow-c0)"/>
  <path d="M 562.5,321.0 L 514.1,421.0" stroke="#202020" stroke-width="3" fill="none" marker-end="url(#arrow-c0)"/>
  <path d="M 500.0,479.0 L 500.0,496.0" stroke="#202020" stroke-width="3" fill="none" marker-end="url(#arrow-c0)"/>
  <path d="M 500.0,554.0 L 500.0,566.0" stroke="#202020" stroke-width="3" fill="none" marker-end="url(#arrow-c0)"/>
  <path d="M 500.0,624.0 L 500.0,636.0" stroke="#202020" stroke-width="3" fill="none" marker-end="url(#arrow-c0)"/>
  <path d="M 500.0,694.0 L 500.0,713.0" stroke="#202020" stroke-width="3" fill="none" marker-end="url(#arrow-c0)"/>
  <path d="M 700.0,144.0 L 700.0,818.0" stroke="#202020" stroke-width="3" fill="none" marker-end="url(#arrow-c0)"/>
  <path d="M 700.0,882.0 L 700.0,898.0" stroke="#202020" stroke-width="3" fill="none" marker-end="url(#arrow-c0)"/>
  <path d="M 590.0,872.0 L 410.0,908.0" stroke="#202020" stroke-width="3" fill="none" marker-end="url(#arrow-c0)"/>
  <path d="M 439.0,777.0 L 361.0,818.0" stroke="#202020" stroke-width="3" fill="none" marker-end="url(#arrow-c0)"/>
  <path d="M 300.0,882.0 L 300.0,898.0" stroke="#202020" stroke-width="3" fill="none" marker-end="url(#arrow-c0)"/>
  <path d="M 624.7,962.0 L 568.2,986.0" stroke="#202020" stroke-width="3" fill="none" marker-end="url(#arrow-c0)"/>
  <path d="M 375.3,962.0 L 431.8,986.0" stroke="#202020" stroke-width="3" fill="none" marker-end="url(#arrow-c0)"/>
  <path d="M 500.0,1044.0 L 500.0,1056.0" stroke="#202020" stroke-width="3" fill="none" marker-end="url(#arrow-c0)"/>
  <path d="M 500.0,1114.0 L 500.0,1133.0" stroke="#202020" stroke-width="3" fill="none" marker-end="url(#arrow-c0)"/>
  <rect x="215.0" y="69.0" width="170.0" height="72.0" fill="#BDBDBD" stroke="#202020" stroke-width="2" rx="0"/>
  <text x="300.0" y="101.8" font-size="15" fill="#111111" text-anchor="middle" font-weight="bold">Pre-disaster RGB</text>
  <text x="300.0" y="118.8" font-size="15" fill="#111111" text-anchor="middle" font-weight="bold">crop + mask</text>
  <rect x="605.0" y="66.0" width="190.0" height="78.0" fill="#BDBDBD" stroke="#202020" stroke-width="2" rx="0"/>
  <text x="700.0" y="110.2" font-size="15" fill="#111111" text-anchor="middle" font-weight="bold">Geometry vector (4)</text>
  <rect x="220.0" y="169.0" width="160.0" height="72.0" fill="#49A35C" stroke="#202020" stroke-width="2" rx="0"/>
  <text x="300.0" y="210.2" font-size="15" fill="#111111" text-anchor="middle" font-weight="bold">ConvNeXt-Tiny</text>
  <rect x="225.0" y="249.0" width="150.0" height="72.0" fill="#E3E2B8" stroke="#202020" stroke-width="2" rx="0"/>
  <text x="300.0" y="281.8" font-size="15" fill="#111111" text-anchor="middle" font-weight="bold">Mask-aware</text>
  <text x="300.0" y="298.8" font-size="15" fill="#111111" text-anchor="middle" font-weight="bold">average pooling</text>
  <rect x="215.0" y="329.0" width="170.0" height="72.0" fill="#E3E2B8" stroke="#202020" stroke-width="2" rx="0"/>
  <text x="300.0" y="370.2" font-size="15" fill="#111111" text-anchor="middle" font-weight="bold">Visual projection</text>
  <rect x="492.5" y="249.0" width="175.0" height="72.0" fill="#49A35C" stroke="#202020" stroke-width="2" rx="0"/>
  <text x="580.0" y="290.2" font-size="15" fill="#111111" text-anchor="middle" font-weight="bold">Geometry projection</text>
  <rect x="390.0" y="421.0" width="220.0" height="58.0" fill="#2E9D95" stroke="#202020" stroke-width="2" rx="0"/>
  <text x="500.0" y="455.2" font-size="15" fill="#111111" text-anchor="middle" font-weight="bold">Concatenate</text>
  <rect x="390.0" y="496.0" width="220.0" height="58.0" fill="#E3E2B8" stroke="#202020" stroke-width="2" rx="0"/>
  <text x="500.0" y="530.2" font-size="15" fill="#111111" text-anchor="middle" font-weight="bold">Type head</text>
  <rect x="410.0" y="566.0" width="180.0" height="58.0" fill="#E3E2B8" stroke="#202020" stroke-width="2" rx="0"/>
  <text x="500.0" y="600.2" font-size="15" fill="#111111" text-anchor="middle" font-weight="bold">Softmax</text>
  <rect x="380.0" y="636.0" width="240.0" height="58.0" fill="#49A35C" stroke="#202020" stroke-width="2" rx="0"/>
  <text x="500.0" y="670.2" font-size="15" fill="#111111" text-anchor="middle" font-weight="bold">Ensemble mean</text>
  <rect x="330.0" y="713.0" width="340.0" height="64.0" fill="#198847" stroke="#202020" stroke-width="2" rx="0"/>
  <text x="500.0" y="741.8" font-size="15" fill="#111111" text-anchor="middle" font-weight="bold">Building-type</text>
  <text x="500.0" y="758.8" font-size="15" fill="#111111" text-anchor="middle" font-weight="bold">probabilities</text>
  <rect x="590.0" y="818.0" width="220.0" height="64.0" fill="#E3E2B8" stroke="#202020" stroke-width="2" rx="0"/>
  <text x="700.0" y="846.8" font-size="15" fill="#111111" text-anchor="middle" font-weight="bold">Log footprint</text>
  <text x="700.0" y="863.8" font-size="15" fill="#111111" text-anchor="middle" font-weight="bold">area</text>
  <rect x="590.0" y="898.0" width="220.0" height="64.0" fill="#E3E2B8" stroke="#202020" stroke-width="2" rx="0"/>
  <text x="700.0" y="935.2" font-size="15" fill="#111111" text-anchor="middle" font-weight="bold">Ridge baseline</text>
  <rect x="190.0" y="818.0" width="220.0" height="64.0" fill="#D8C5F2" stroke="#202020" stroke-width="2" rx="0"/>
  <text x="300.0" y="855.2" font-size="15" fill="#111111" text-anchor="middle" font-weight="bold">Soft-type features</text>
  <rect x="190.0" y="898.0" width="220.0" height="64.0" fill="#E3E2B8" stroke="#202020" stroke-width="2" rx="0"/>
  <text x="300.0" y="935.2" font-size="15" fill="#111111" text-anchor="middle" font-weight="bold">Residual HGB</text>
  <rect x="320.0" y="986.0" width="360.0" height="58.0" fill="#49A35C" stroke="#202020" stroke-width="2" rx="0"/>
  <text x="500.0" y="1020.2" font-size="15" fill="#111111" text-anchor="middle" font-weight="bold">Add baseline + residual</text>
  <rect x="390.0" y="1056.0" width="220.0" height="58.0" fill="#E3E2B8" stroke="#202020" stroke-width="2" rx="0"/>
  <text x="500.0" y="1090.2" font-size="15" fill="#111111" text-anchor="middle" font-weight="bold">expm1 + clamp</text>
  <rect x="320.0" y="1133.0" width="360.0" height="64.0" fill="#198847" stroke="#202020" stroke-width="2" rx="0"/>
  <text x="500.0" y="1161.8" font-size="15" fill="#111111" text-anchor="middle" font-weight="bold">Constructed</text>
  <text x="500.0" y="1178.8" font-size="15" fill="#111111" text-anchor="middle" font-weight="bold">exposure proxy</text>
  <text x="500.0" y="34.0" font-size="28" fill="#111111" text-anchor="middle">Stage 2a: Building-Type and Exposure-Proxy Model Architecture</text>
  <text x="500.0" y="58.0" font-size="14" fill="#3F3F46" text-anchor="middle">Packaged inference path · model architecture only</text>
</svg>
